<svg width="218" height="218" fill="none" xmlns="http://www.w3.org/2000/svg"><path d="M109 218c60.199 0 109-48.801 109-109S169.199 0 109 0 0 48.801 0 109s48.801 109 109 109z" fill="#7D71FE"/><path d="M204.561 119.452c-38.821-11.945-42.972 18.097-109.39-7.094-32.21-12.217-58.71-46.972-82.48-4.851.747 53.753 42.555 96.308 96.309 96.308 53.753 0 95.561-48.081 95.561-84.363z" fill="#4A4398"/><g filter="url(#filter0_d)"><path d="M159.767 74.5c0 6.734-1.775 12.913-5.327 18.538-3.551 5.624-8.716 10.219-15.496 13.783-6.78 3.565-14.851 5.665-24.213 6.298l-5.206 28.637c-2.018 11.012-7.506 16.517-16.465 16.517-4.924 0-9.484-1.426-13.68-4.277-4.117-2.852-7.426-7.209-9.928-13.071-2.502-5.862-3.753-13.071-3.753-21.627 0-16.081 2.623-29.706 7.869-40.876 5.327-11.249 12.43-19.646 21.308-25.191 8.959-5.625 18.805-8.437 29.54-8.437 7.587 0 14.003 1.307 19.249 3.921 5.327 2.614 9.323 6.18 11.986 10.695 2.744 4.436 4.116 9.466 4.116 15.09zm-42.857 26.38c16.545-2.06 24.818-10.496 24.818-25.31 0-5.228-1.775-9.466-5.327-12.714-3.47-3.328-8.878-4.991-16.222-4.991-8.314 0-15.578 2.575-21.792 7.724C92.253 70.738 87.49 77.907 84.1 87.096c-3.31 9.11-4.964 19.527-4.964 31.252 0 4.911.484 9.268 1.453 13.071 1.05 3.802 2.34 6.773 3.874 8.912 1.614 2.059 3.148 3.089 4.6 3.089 2.018 0 3.552-2.733 4.601-8.199l3.995-22.458c-3.147-.476-4.52-.674-4.116-.594-2.421-.396-3.995-1.109-4.722-2.139-.726-1.109-1.09-2.496-1.09-4.159 0-1.743.485-3.129 1.454-4.159 1.049-1.03 2.461-1.545 4.237-1.545.807 0 1.412.04 1.816.119 1.937.317 3.43.515 4.48.594 1.049-6.179 2.542-14.457 4.479-24.835.484-2.693 1.574-4.594 3.269-5.703 1.775-1.189 3.833-1.783 6.174-1.783 2.663 0 4.56.515 5.69 1.545 1.211.95 1.816 2.495 1.816 4.634 0 1.268-.081 2.298-.242 3.09l-3.995 23.052z" fill="#fff"/></g><defs><filter id="filter0_d" x="65.699" y="44.794" width="101.068" height="120.479" filterUnits="userSpaceOnUse" color-interpolation-filters="sRGB"><feFlood flood-opacity="0" result="BackgroundImageFix"/><feColorMatrix in="SourceAlpha" values="0 0 0 0 0 0 0 0 0 0 0 0 0 0 0 0 0 0 127 0"/><feOffset dx="4" dy="4"/><feGaussianBlur stdDeviation="1.5"/><feColorMatrix values="0 0 0 0 0 0 0 0 0 0 0 0 0 0 0 0 0 0 0.2 0"/><feBlend in2="BackgroundImageFix" result="effect1_dropShadow"/><feBlend in="SourceGraphic" in2="effect1_dropShadow" result="shape"/></filter></defs></svg>