<svg width="93" height="93" viewBox="0 0 93 93" fill="none" xmlns="http://www.w3.org/2000/svg">
<rect width="93" height="93" rx="46.5" fill="#7D71FE"/>
<path d="M48.8545 53.6221H42.5557V66H34.8652V30.4531H48.8545C51.6702 30.4531 54.0791 30.9658 56.0811 31.9912C58.0993 33.0166 59.6455 34.4245 60.7197 36.2148C61.8102 37.9889 62.3555 40.0153 62.3555 42.2939C62.3555 45.7445 61.1592 48.4951 58.7666 50.5459C56.374 52.5967 53.07 53.6221 48.8545 53.6221ZM48.8545 36.6543H42.5557V47.4453H48.8545C50.8727 47.4453 52.3294 46.9733 53.2246 46.0293C54.1198 45.069 54.5674 43.8402 54.5674 42.3428C54.5674 40.8617 54.1198 39.5433 53.2246 38.3877C52.3294 37.2321 50.8727 36.6543 48.8545 36.6543Z" fill="#FFFEFE"/>
</svg>
