<?xml version="1.0" standalone="no"?>
<!DOCTYPE svg PUBLIC "-//W3C//DTD SVG 20010904//EN"
 "http://www.w3.org/TR/2001/REC-SVG-20010904/DTD/svg10.dtd">
<svg version="1.0" xmlns="http://www.w3.org/2000/svg"
 width="700.000000pt" height="700.000000pt" viewBox="0 0 700.000000 700.000000"
 preserveAspectRatio="xMidYMid meet">
<metadata>
Created by potrace 1.14, written by Peter Selinger 2001-2017
</metadata>
<g transform="translate(0.000000,700.000000) scale(0.100000,-0.100000)"
fill="#000000" stroke="none">
<path d="M3185 6989 c-1393 -129 -2583 -1078 -3015 -2404 -255 -785 -223
-1653 90 -2414 389 -947 1184 -1685 2155 -2001 519 -169 1089 -214 1630 -129
1454 228 2618 1354 2894 2799 54 287 75 650 52 935 -126 1573 -1280 2862
-2831 3164 -210 41 -330 52 -605 56 -148 2 -315 -1 -370 -6z m993 -1439 c334
-35 598 -166 759 -375 325 -423 220 -1079 -230 -1440 -245 -197 -545 -313
-917 -355 -58 -6 -106 -13 -107 -14 -1 -1 -38 -202 -83 -446 -91 -508 -94
-522 -122 -610 -86 -273 -274 -407 -542 -386 -291 22 -523 189 -669 481 -123
247 -172 562 -149 970 27 474 104 805 263 1134 171 355 402 620 694 796 327
198 720 285 1103 245z"/>
<path d="M3669 5130 c-235 -42 -426 -144 -600 -319 -262 -265 -435 -669 -504
-1176 -23 -170 -31 -505 -15 -646 35 -322 158 -567 298 -595 29 -6 37 -2 71
33 26 28 45 62 60 109 31 98 162 837 149 845 -6 4 -34 9 -64 13 -155 18 -211
50 -234 131 -17 59 -9 149 16 182 45 60 67 68 177 65 56 -1 120 -3 142 -5 38
-2 39 -1 47 38 4 22 37 206 74 409 36 203 72 388 80 410 23 64 59 102 130 137
55 28 76 32 142 33 107 1 147 -10 192 -50 46 -42 66 -108 56 -190 -6 -53 -121
-726 -131 -772 -6 -24 -5 -24 47 -17 175 24 395 112 497 199 109 94 181 207
221 346 30 105 38 309 16 403 -47 201 -191 342 -411 403 -68 19 -377 29 -456
14z"/>
</g>
</svg>
